<?xml version="1.0" encoding="UTF-8" standalone="no"?>
<svg
   xmlns:dc="http://purl.org/dc/elements/1.1/"
   xmlns:cc="http://creativecommons.org/ns#"
   xmlns:rdf="http://www.w3.org/1999/02/22-rdf-syntax-ns#"
   xmlns:svg="http://www.w3.org/2000/svg"
   xmlns="http://www.w3.org/2000/svg"
   xmlns:sodipodi="http://sodipodi.sourceforge.net/DTD/sodipodi-0.dtd"
   xmlns:inkscape="http://www.inkscape.org/namespaces/inkscape"
   width="55.918209mm"
   height="55.918209mm"
   viewBox="0 0 55.918209 55.918209"
   version="1.1"
   id="svg8"
   inkscape:version="1.0.2 (e86c8708, 2021-01-15)"
   sodipodi:docname="speakeasyicon.svg">
  <defs
     id="defs2">
    <inkscape:perspective
       sodipodi:type="inkscape:persp3d"
       inkscape:vp_x="0 : -92.581798 : 1"
       inkscape:vp_y="0 : 1000 : 0"
       inkscape:vp_z="210.00001 : -92.581798 : 1"
       inkscape:persp3d-origin="105.00001 : -142.0818 : 1"
       id="perspective839" />
  </defs>
  <sodipodi:namedview
     id="base"
     pagecolor="#ffffff"
     bordercolor="#666666"
     borderopacity="1.0"
     inkscape:pageopacity="0.0"
     inkscape:pageshadow="2"
     inkscape:zoom="0.33875922"
     inkscape:cx="-253.43259"
     inkscape:cy="-177.12708"
     inkscape:document-units="mm"
     inkscape:current-layer="layer1"
     inkscape:document-rotation="0"
     showgrid="false"
     inkscape:window-width="1252"
     inkscape:window-height="714"
     inkscape:window-x="0"
     inkscape:window-y="0"
     inkscape:window-maximized="0"
     fit-margin-top="0"
     fit-margin-left="0"
     fit-margin-right="0"
     fit-margin-bottom="0" />
  <metadata
     id="metadata5">
    <rdf:RDF>
      <cc:Work
         rdf:about="">
        <dc:format>image/svg+xml</dc:format>
        <dc:type
           rdf:resource="http://purl.org/dc/dcmitype/StillImage" />
        <dc:title></dc:title>
      </cc:Work>
    </rdf:RDF>
  </metadata>
  <g
     inkscape:label="Layer 1"
     inkscape:groupmode="layer"
     id="layer1"
     transform="translate(-77.040894,-120.54089)">
    <rect
       style="fill:#fff8e3;stroke:none;stroke-width:0.1;stroke-linecap:round;stroke-linejoin:round"
       id="rect837"
       width="55.918209"
       height="55.918209"
       x="77.040894"
       y="120.54089"
       rx="4.9704099"
       ry="4.9704099" />
    <g
       aria-label="s"
       id="text835"
       style="font-size:49.2048px;line-height:1.25;font-family:Bevan;-inkscape-font-specification:Bevan;fill:#3b71ca;fill-opacity:1;stroke-width:1.23012">
      <path
         d="m 107.15031,161.8223 q -2.45063,0 -4.7571,-0.57662 -2.30648,-0.57662 -4.084387,-1.65778 l -0.744799,1.80193 h -5.285672 v -9.03369 h 6.1506 q 0.552593,1.87401 1.922058,2.95517 1.36947,1.08116 2.9792,1.08116 2.11427,0 2.11427,-1.5857 0,-1.15324 -0.96103,-1.77791 -0.93701,-0.62467 -2.45063,-1.05713 -1.4896,-0.43247 -3.171404,-0.93701 -1.681804,-0.50454 -3.195429,-1.36947 -1.489598,-0.88895 -2.450629,-2.40258 -0.937006,-1.53765 -0.937006,-4.0123 0,-2.2344 1.177263,-4.06036 1.20129,-1.82596 3.603868,-2.90712 2.426604,-1.10519 6.078527,-1.10519 2.35452,0 4.34866,0.50455 2.01817,0.48051 3.77205,1.56167 l 0.57662,-1.60973 h 5.28567 v 8.26487 h -6.1506 q -0.62467,-1.82596 -1.80193,-2.66686 -1.15324,-0.86493 -2.49868,-0.86493 -2.35453,0 -2.35453,1.44155 0,1.00908 0.96103,1.60973 0.98506,0.57662 2.49868,1.00908 1.53765,0.43246 3.24348,0.98506 1.70583,0.55259 3.21946,1.4896 1.53765,0.937 2.49868,2.49868 0.98505,1.56167 0.98505,4.06035 0,3.8201 -2.76296,6.10255 -2.73894,2.25843 -7.80838,2.25843 z"
         style="fill:#3b71ca;fill-opacity:1;stroke-width:1.23012"
         id="path893" />
    </g>
    <rect
       style="fill:#3b71ca;fill-opacity:1;stroke:none;stroke-width:0.0806443;stroke-linecap:round;stroke-linejoin:round"
       id="rect855"
       width="42.505844"
       height="5.0275722"
       x="83.747078"
       y="166.82399"
       rx="3.2325044"
       ry="4.9704099" />
  </g>
</svg>
